<svg xmlns="http://www.w3.org/2000/svg" viewBox="0 0 512 512">
  <defs>
    <linearGradient id="top" x1="0" y1="0" x2="0" y2="1">
      <stop offset="0" stop-color="#4FE39A"/>
      <stop offset="1" stop-color="#12B76A"/>
    </linearGradient>
    <clipPath id="left-eye"><ellipse cx="186" cy="214" rx="62" ry="70"/></clipPath>
    <clipPath id="right-eye"><ellipse cx="326" cy="214" rx="62" ry="70"/></clipPath>
  </defs>
  <rect x="32" y="60" width="448" height="420" rx="112" fill="#0A7A45"/>
  <rect x="32" y="44" width="448" height="408" rx="112" fill="#0E9F5B"/>
  <rect x="66" y="44" width="380" height="350" rx="88" fill="url(#top)"/>
  <ellipse cx="124" cy="296" rx="30" ry="20" fill="#FFC53D" opacity="0.5"/>
  <ellipse cx="388" cy="296" rx="30" ry="20" fill="#FFC53D" opacity="0.5"/>
  <ellipse cx="186" cy="214" rx="62" ry="70" fill="#FFFFFF"/>
  <circle cx="198" cy="208" r="36" fill="#062A18"/>
  <circle cx="212" cy="194" r="13" fill="#FFFFFF"/>
  <ellipse cx="326" cy="214" rx="62" ry="70" fill="#FFFFFF"/>
  <circle cx="338" cy="208" r="36" fill="#062A18"/>
  <circle cx="352" cy="194" r="13" fill="#FFFFFF"/>
  <path d="M140 124 L224 128" fill="none" stroke="#0A6E3E" stroke-width="20" stroke-linecap="round" stroke-linejoin="round"/>
  <path d="M288 112 L372 92" fill="none" stroke="#0A6E3E" stroke-width="20" stroke-linecap="round" stroke-linejoin="round"/>
  <path d="M218 316 Q268 346 306 300" fill="none" stroke="#053D22" stroke-width="18" stroke-linecap="round" stroke-linejoin="round"/>
</svg>
