<svg xmlns="http://www.w3.org/2000/svg" viewBox="0 0 512 512">
  <defs>
    <linearGradient id="top" x1="0" y1="0" x2="0" y2="1">
      <stop offset="0" stop-color="#D4E27A"/>
      <stop offset="1" stop-color="#A9C231"/>
    </linearGradient>
    <clipPath id="left-eye"><ellipse cx="186" cy="214" rx="62" ry="70"/></clipPath>
    <clipPath id="right-eye"><ellipse cx="326" cy="214" rx="62" ry="70"/></clipPath>
  </defs>
  <rect x="32" y="60" width="448" height="420" rx="112" fill="#6A7F10"/>
  <rect x="32" y="44" width="448" height="408" rx="112" fill="#8DA51E"/>
  <rect x="66" y="44" width="380" height="350" rx="88" fill="url(#top)"/>
  <ellipse cx="124" cy="296" rx="30" ry="20" fill="#FFB45C" opacity="0.5"/>
  <ellipse cx="388" cy="296" rx="30" ry="20" fill="#FFB45C" opacity="0.5"/>
  <ellipse cx="186" cy="214" rx="62" ry="70" fill="#FFFFFF"/>
  <circle cx="214" cy="220" r="28" fill="#0B1A14"/>
  <circle cx="228" cy="206" r="10" fill="#FFFFFF"/>
  <ellipse cx="326" cy="214" rx="62" ry="70" fill="#FFFFFF"/>
  <circle cx="354" cy="220" r="28" fill="#0B1A14"/>
  <circle cx="368" cy="206" r="10" fill="#FFFFFF"/>
  <rect x="110" y="130" width="152" height="58" fill="#BDD44E" clip-path="url(#left-eye)"/>
  <rect x="250" y="130" width="152" height="58" fill="#BDD44E" clip-path="url(#right-eye)"/>
  <path d="M126 188 L246 188" fill="none" stroke="#0B1A14" stroke-width="12" stroke-linecap="round" stroke-linejoin="round"/>
  <path d="M266 188 L386 188" fill="none" stroke="#0B1A14" stroke-width="12" stroke-linecap="round" stroke-linejoin="round"/>
  <path d="M136 126 L228 134" fill="none" stroke="#56680C" stroke-width="20" stroke-linecap="round" stroke-linejoin="round"/>
  <path d="M284 116 L376 96" fill="none" stroke="#56680C" stroke-width="20" stroke-linecap="round" stroke-linejoin="round"/>
  <path d="M220 326 Q262 316 300 330" fill="none" stroke="#34400A" stroke-width="16" stroke-linecap="round" stroke-linejoin="round"/>
</svg>
