<svg xmlns="http://www.w3.org/2000/svg" viewBox="0 0 512 512">
  <defs>
    <linearGradient id="top" x1="0" y1="0" x2="0" y2="1">
      <stop offset="0" stop-color="#E3C8FF"/>
      <stop offset="1" stop-color="#B58CF2"/>
    </linearGradient>
    <clipPath id="left-eye"><ellipse cx="186" cy="214" rx="62" ry="70"/></clipPath>
    <clipPath id="right-eye"><ellipse cx="326" cy="214" rx="62" ry="70"/></clipPath>
  </defs>
  <rect x="32" y="60" width="448" height="420" rx="112" fill="#7A50BF"/>
  <rect x="32" y="44" width="448" height="408" rx="112" fill="#9A6FE0"/>
  <rect x="66" y="44" width="380" height="350" rx="88" fill="url(#top)"/>
  <ellipse cx="124" cy="296" rx="30" ry="20" fill="#FF9DC8" opacity="0.5"/>
  <ellipse cx="388" cy="296" rx="30" ry="20" fill="#FF9DC8" opacity="0.5"/>
  <ellipse cx="186" cy="214" rx="62" ry="70" fill="#FFFFFF"/>
  <circle cx="170" cy="194" r="32" fill="#0B1A14"/>
  <circle cx="184" cy="180" r="11" fill="#FFFFFF"/>
  <ellipse cx="326" cy="214" rx="62" ry="70" fill="#FFFFFF"/>
  <circle cx="310" cy="194" r="32" fill="#0B1A14"/>
  <circle cx="324" cy="180" r="11" fill="#FFFFFF"/>
  <path d="M136 106 L224 90" fill="none" stroke="#6A41AD" stroke-width="20" stroke-linecap="round" stroke-linejoin="round"/>
  <path d="M288 128 L372 132" fill="none" stroke="#6A41AD" stroke-width="20" stroke-linecap="round" stroke-linejoin="round"/>
  <path d="M230 324 Q262 338 294 312" fill="none" stroke="#3D2270" stroke-width="16" stroke-linecap="round" stroke-linejoin="round"/>
  <circle cx="376" cy="122" r="9" fill="#FFFFFF"/>
  <circle cx="402" cy="94" r="14" fill="#FFFFFF"/>
  <circle cx="440" cy="54" r="24" fill="#FFFFFF"/>
</svg>
