<svg xmlns="http://www.w3.org/2000/svg" viewBox="0 0 512 512">
  <defs>
    <linearGradient id="top" x1="0" y1="0" x2="0" y2="1">
      <stop offset="0" stop-color="#F1E3C4"/>
      <stop offset="1" stop-color="#DCC08C"/>
    </linearGradient>
    <clipPath id="left-eye"><ellipse cx="186" cy="214" rx="62" ry="70"/></clipPath>
    <clipPath id="right-eye"><ellipse cx="326" cy="214" rx="62" ry="70"/></clipPath>
  </defs>
  <rect x="32" y="60" width="448" height="420" rx="112" fill="#9E814C"/>
  <rect x="32" y="44" width="448" height="408" rx="112" fill="#C7A86F"/>
  <rect x="66" y="44" width="380" height="350" rx="88" fill="url(#top)"/>
  <ellipse cx="124" cy="296" rx="30" ry="20" fill="#F29C8A" opacity="0.5"/>
  <ellipse cx="388" cy="296" rx="30" ry="20" fill="#F29C8A" opacity="0.5"/>
  <ellipse cx="186" cy="214" rx="62" ry="70" fill="#FFFFFF"/>
  <circle cx="196" cy="182" r="28" fill="#0B1A14"/>
  <circle cx="210" cy="168" r="10" fill="#FFFFFF"/>
  <ellipse cx="326" cy="214" rx="62" ry="70" fill="#FFFFFF"/>
  <circle cx="336" cy="182" r="28" fill="#0B1A14"/>
  <circle cx="350" cy="168" r="10" fill="#FFFFFF"/>
  <path d="M136 108 L228 100" fill="none" stroke="#86693A" stroke-width="20" stroke-linecap="round" stroke-linejoin="round"/>
  <path d="M284 100 L376 108" fill="none" stroke="#86693A" stroke-width="20" stroke-linecap="round" stroke-linejoin="round"/>
  <path d="M218 332 L296 320" fill="none" stroke="#4D3A1C" stroke-width="16" stroke-linecap="round" stroke-linejoin="round"/>
</svg>
