<svg xmlns="http://www.w3.org/2000/svg" viewBox="0 0 512 512">
  <defs>
    <linearGradient id="top" x1="0" y1="0" x2="0" y2="1">
      <stop offset="0" stop-color="#4FE39A"/>
      <stop offset="1" stop-color="#12B76A"/>
    </linearGradient>
    <clipPath id="left-eye"><ellipse cx="186" cy="214" rx="62" ry="70"/></clipPath>
    <clipPath id="right-eye"><ellipse cx="326" cy="214" rx="62" ry="70"/></clipPath>
  </defs>
  <rect x="32" y="60" width="448" height="420" rx="112" fill="#0A7A45"/>
  <rect x="32" y="44" width="448" height="408" rx="112" fill="#0E9F5B"/>
  <rect x="66" y="44" width="380" height="350" rx="88" fill="url(#top)"/>
  <ellipse cx="124" cy="296" rx="30" ry="20" fill="#FFC53D" opacity="0.5"/>
  <ellipse cx="388" cy="296" rx="30" ry="20" fill="#FFC53D" opacity="0.5"/>
  <path d="M132 228 Q186 158 240 228" fill="none" stroke="#062A18" stroke-width="26" stroke-linecap="round" stroke-linejoin="round"/>
  <path d="M272 228 Q326 158 380 228" fill="none" stroke="#062A18" stroke-width="26" stroke-linecap="round" stroke-linejoin="round"/>
  <path d="M198 290 Q256 384 314 290 Z" fill="#053D22" stroke="#053D22" stroke-width="14" stroke-linejoin="round"/>
  <ellipse cx="256" cy="336" rx="24" ry="13" fill="#FF8A9A"/>
  <path d="M410 70 C 414 96, 420 102, 446 106 C 420 110, 414 116, 410 142 C 406 116, 400 110, 374 106 C 400 102, 406 96, 410 70 Z" fill="#FFE27A"/>
  <path d="M112 96 C 114 110, 118 114, 132 116 C 118 118, 114 122, 112 136 C 110 122, 106 118, 92 116 C 106 114, 110 110, 112 96 Z" fill="#FFE27A"/>
</svg>
