<svg xmlns="http://www.w3.org/2000/svg" viewBox="0 0 512 512">
  <defs>
    <linearGradient id="top" x1="0" y1="0" x2="0" y2="1">
      <stop offset="0" stop-color="#8CCBFF"/>
      <stop offset="1" stop-color="#4A97FF"/>
    </linearGradient>
    <clipPath id="left-eye"><ellipse cx="186" cy="214" rx="62" ry="70"/></clipPath>
    <clipPath id="right-eye"><ellipse cx="326" cy="214" rx="62" ry="70"/></clipPath>
  </defs>
  <rect x="32" y="60" width="448" height="420" rx="112" fill="#1E57B8"/>
  <rect x="32" y="44" width="448" height="408" rx="112" fill="#2F78E6"/>
  <rect x="66" y="44" width="380" height="350" rx="88" fill="url(#top)"/>
  <ellipse cx="124" cy="296" rx="30" ry="20" fill="#FF9DB0" opacity="0.5"/>
  <ellipse cx="388" cy="296" rx="30" ry="20" fill="#FF9DB0" opacity="0.5"/>
  <ellipse cx="186" cy="214" rx="62" ry="70" fill="#FFFFFF"/>
  <circle cx="182" cy="234" r="32" fill="#0B1A14"/>
  <circle cx="196" cy="220" r="11" fill="#FFFFFF"/>
  <ellipse cx="326" cy="214" rx="62" ry="70" fill="#FFFFFF"/>
  <circle cx="322" cy="234" r="32" fill="#0B1A14"/>
  <circle cx="336" cy="220" r="11" fill="#FFFFFF"/>
  <rect x="110" y="130" width="152" height="52" fill="#6BB2FF" clip-path="url(#left-eye)"/>
  <rect x="250" y="130" width="152" height="52" fill="#6BB2FF" clip-path="url(#right-eye)"/>
  <path d="M126 182 L246 182" fill="none" stroke="#0B1A14" stroke-width="12" stroke-linecap="round" stroke-linejoin="round"/>
  <path d="M266 182 L386 182" fill="none" stroke="#0B1A14" stroke-width="12" stroke-linecap="round" stroke-linejoin="round"/>
  <path d="M134 124 L222 98" fill="none" stroke="#1A4A9E" stroke-width="20" stroke-linecap="round" stroke-linejoin="round"/>
  <path d="M290 98 L378 124" fill="none" stroke="#1A4A9E" stroke-width="20" stroke-linecap="round" stroke-linejoin="round"/>
  <path d="M214 340 Q256 306 298 340" fill="none" stroke="#0D2E66" stroke-width="18" stroke-linecap="round" stroke-linejoin="round"/>
</svg>
